<svg width="252" height="220" viewBox="0 0 63 55" fill="none" xmlns="http://www.w3.org/2000/svg">
<path fill-rule="evenodd" clip-rule="evenodd" d="M53.9077 53.4316C59.3283 47.8026 62.661 40.1512 62.661 31.722C62.661 14.4289 48.6338 0.410034 31.3306 0.410034C14.0272 0.410034 0 14.4289 0 31.722C0 40.1512 3.33275 47.8026 8.75318 53.4316H53.9077Z" fill="#F3F3F6"/>
<path d="M23.5642 23.5413C23.5642 23.5413 20.6005 22.8339 17.4013 27.3013C17.4013 27.3013 16.3713 28.666 14.6346 29.0349C14.0091 29.1682 13.5921 29.8527 13.76 30.5466C13.8861 31.082 14.3177 31.454 14.8128 31.454H22.0234C23.3782 31.449 24.7018 31.0481 25.8315 30.3007C26.9818 29.5394 28.3329 29.1379 29.7125 29.1474L40.4173 29.2641L48.4097 29.1839C49.5084 29.1734 50.2588 27.9389 49.8691 26.7876C49.7934 26.5521 49.6661 26.3364 49.4963 26.1562C49.3265 25.976 49.1187 25.8358 48.8881 25.7458L48.1929 25.4926C47.1145 25.0916 46.1471 24.4394 45.371 23.5903L44.0002 22.1119L23.5642 23.5413Z" fill="#008539"/>
<path d="M22.7896 42.7391V41.7327C22.7895 39.4521 23.6928 37.2643 25.302 35.6472C26.9111 34.0303 29.0953 33.1156 31.3772 33.1032L36.2527 33.0761C36.6407 33.0734 37.0119 32.9174 37.2853 32.6422C37.5587 32.367 37.7121 31.995 37.7121 31.6072C37.7122 31.2285 37.5658 30.8644 37.3035 30.591C37.0413 30.3176 36.6834 30.1561 36.3048 30.1403L31.3595 29.9319C30.2655 29.8856 29.232 29.4173 28.4762 28.6254C27.7204 27.8335 27.3011 26.7798 27.3064 25.6854V24.4238L31.0592 23.8904C31.0601 24.5531 31.3147 25.1904 31.7708 25.6714C32.227 26.1524 32.85 26.4408 33.5121 26.4773L38.005 26.7533C39.3346 26.8937 40.5711 27.5013 41.4942 28.4679C42.4173 29.4346 42.9669 30.6973 43.0453 32.0312C43.1252 33.3877 42.7125 34.7274 41.8831 35.8041C41.0536 36.8808 39.863 37.622 38.5304 37.8915L34.3419 39.0687C34.1496 39.1077 33.9767 39.212 33.8526 39.364C33.7285 39.5159 33.6609 39.706 33.6612 39.9022C33.6612 40.1151 33.7415 40.3203 33.886 40.4768C34.0304 40.6333 34.2285 40.7298 34.4409 40.7471L36.7218 41.1492C38.1927 41.4503 39.0339 41.8504 39.7689 42.7411H22.7896V42.7391Z" fill="#006D23"/>
<path d="M40.3921 53.5334H24.2488C23.7069 53.5334 23.1831 53.3387 22.7725 52.9854C22.3618 52.632 22.0915 52.1438 22.0107 51.6082L20.5752 42.0587H44.0667L42.6313 51.6082C42.5508 52.1438 42.2805 52.633 41.8695 52.9863C41.4585 53.3396 40.9342 53.5339 40.3921 53.5334Z" fill="#E88A23"/>
<path d="M43.0412 32.0311C42.9617 30.6982 42.4115 29.4366 41.4885 28.4711C40.5655 27.5055 39.3297 26.8987 38.0009 26.7585L33.5122 26.4772C32.8528 26.4366 32.2338 26.1463 31.7812 25.6655C31.3285 25.1846 31.0763 24.5494 31.076 23.8893L27.3232 24.4227L27.3169 25.6844C27.3116 26.7787 27.7309 27.8324 28.4867 28.6243C29.2425 29.4162 30.276 29.8844 31.37 29.9308L36.3153 30.1392C36.6939 30.155 37.0518 30.3165 37.314 30.5899C37.5763 30.8633 37.7227 31.2273 37.7226 31.606C37.7223 31.7072 37.7118 31.8081 37.6913 31.9072L42.9922 33.2031C43.0493 32.8153 43.0658 32.4224 43.0412 32.0311Z" fill="#003F00"/>
<path d="M31.2626 9.56836H29.4738C26.802 9.56817 24.2358 10.6113 22.3226 12.4751L21.8743 12.9106C20.9943 13.5572 19.9424 13.9291 18.8512 13.9795L18.4343 13.9992C17.4392 14.0463 16.4752 14.3601 15.6433 14.9076C14.8113 15.4551 14.1421 16.2162 13.7058 17.1112L13.2554 18.0374C13.1301 18.2954 12.9552 18.5262 12.7405 18.7166C12.5259 18.907 12.2757 19.0532 12.0045 19.1469L10.1562 19.7845C9.73999 19.9281 9.37677 20.1938 9.11396 20.547C8.85121 20.9001 8.70111 21.3242 8.68327 21.764C8.66123 22.335 8.8636 22.8921 9.24718 23.3159C9.6308 23.7398 10.1651 23.9968 10.7358 24.032L16.0116 24.3518C17.37 24.4346 18.7049 24.7448 19.9604 25.2697C21.6638 25.9822 23.5074 26.2972 25.3509 26.1907L31.2105 25.8511H36.9793C38.9627 25.851 40.911 25.3277 42.6273 24.3342C44.0497 23.5106 45.6351 23.0081 47.2724 22.862L50.4103 22.5818C50.8892 22.5387 51.332 22.3107 51.6455 21.946C51.9585 21.5813 52.1167 21.1089 52.0863 20.6294L52.0791 20.5252C52.0289 19.7331 51.7342 18.9761 51.2355 18.3584C50.7368 17.7408 50.0587 17.293 49.2947 17.0768C48.4097 16.8246 47.5914 16.3811 46.8971 15.7776L46.3029 15.2567C45.5384 14.5929 44.5789 14.1951 43.5686 14.1232L41.4535 13.9732C40.3344 13.84 39.2921 13.336 38.493 12.5417C36.5706 10.6347 33.9712 9.56576 31.2626 9.56836Z" fill="#9ED696"/>
<path d="M52.086 20.6294L52.0228 19.6365C51.9789 18.9432 51.6722 18.2927 51.1657 17.8173C50.6588 17.3419 49.9894 17.0774 49.2944 17.0778C49.1801 17.0444 49.0663 17.009 48.9534 16.9736L48.9163 16.959C48.8121 16.9225 48.7137 16.885 48.6158 16.8444H48.6033C47.98 16.5855 47.4021 16.2285 46.8917 15.787L46.6645 15.589C45.7492 16.4485 43.8551 17.6185 40.3254 17.6185H36.755C36.2515 17.6185 35.6323 17.9758 35.4217 18.4332C35.3246 18.6454 35.2824 18.8786 35.299 19.1113C35.3156 19.3441 35.3904 19.5689 35.5166 19.7653C35.6427 19.9616 35.8163 20.1231 36.0212 20.2349C36.2261 20.3468 36.4559 20.4054 36.6893 20.4054H36.7081C37.0704 20.4005 37.4259 20.5037 37.7293 20.7017C38.0327 20.8997 38.2702 21.1835 38.4114 21.517C38.4114 21.5263 38.4187 21.5368 38.4229 21.5462C38.7284 22.3557 38.2061 23.2454 37.3607 23.4318C35.9001 23.7458 34.4096 23.8992 32.9157 23.8892H27.0488C25.9573 23.8893 24.8699 23.7577 23.8099 23.4975C23.4003 23.3933 22.9457 23.2766 22.4704 23.1329C20.7754 22.6135 18.9713 22.5627 17.2498 22.9859C15.7769 23.3537 13.6346 23.7246 10.7304 23.8465C10.5052 23.8559 10.2707 23.8621 10.0361 23.8684C10.2593 23.9614 10.4964 24.0167 10.7377 24.032L16.0375 24.3528C17.422 24.4496 18.7814 24.7726 20.0613 25.3092C21.7383 25.9938 23.5474 26.2949 25.3559 26.1906L31.2155 25.851H36.9843C38.9677 25.8509 40.916 25.3277 42.6323 24.3341C44.0531 23.5112 45.6367 23.0088 47.2722 22.862L50.41 22.5817C50.8889 22.5387 51.3321 22.3106 51.6452 21.9459C51.9582 21.5812 52.1164 21.1089 52.086 20.6294Z" fill="#5DB057"/>
<path d="M43.8896 43.239L21.1279 42.3097V44.0537L43.0495 48.8327L43.8896 43.239Z" fill="#C15C17"/>
<path d="M44.7307 44.9164H19.9111C19.5321 44.9164 19.1686 44.766 18.9005 44.4981C18.6325 44.2302 18.4819 43.8669 18.4819 43.4881C18.4818 43.3004 18.5187 43.1146 18.5905 42.9412C18.6622 42.7678 18.7675 42.6102 18.9002 42.4774C19.0329 42.3447 19.1905 42.2394 19.364 42.1675C19.5374 42.0957 19.7234 42.0587 19.9111 42.0587H44.7307C44.9184 42.0587 45.1044 42.0957 45.2779 42.1675C45.4513 42.2394 45.6089 42.3447 45.7416 42.4774C45.8744 42.6102 45.9796 42.7678 46.0514 42.9412C46.1231 43.1146 46.16 43.3004 46.1598 43.4881C46.1598 43.8669 46.0093 44.2302 45.7412 44.4981C45.4732 44.766 45.1097 44.9164 44.7307 44.9164Z" fill="#FFBA40"/>
<path fill-rule="evenodd" clip-rule="evenodd" d="M10.538 54.8777H52.3299L53.7768 53.4316H8.76953L10.538 54.8777Z" fill="black"/>
</svg>